{"title":"Sleepaway Camp 2 Unhappy Campers (1988) fiveofseven zombiRG","uid":15232674,"size":633013255,"categoryP":"video","categoryS":"movies","magnet":"?xt=urn:btih:4b1fcccbc0f463cd89162974cad29bc2a4819c8c&amp;dn=Sleepaway+Camp+2+Unhappy+Campers+%281988%29+fiveofseven+zombiRG&amp;tr=udp%3A%2F%2Ftracker.leechers-paradise.org%3A6969&amp;tr=udp%3A%2F%2Fzer0day.ch%3A1337&amp;tr=udp%3A%2F%2Fopen.demonii.com%3A1337&amp;tr=udp%3A%2F%2Ftracker.coppersurfer.tk%3A6969&amp;tr=udp%3A%2F%2Fexodus.desync.com%3A6969","seeders":1,"leechers":0,"uploader":"fiveofseven","files":3,"time":1467844916,"description":"\nPLOT - Angela, supposedly reformed and living under an assumed\r\nsurname, is working at a summer camp. However, when the\r\ncampers start misbehaving, she soon reverts to her old ways.\r\n\r\n\r\nINFO\r\n\r\nEncoder: fiveofseven\r\nSource: Blu-Ray\r\nRating: R \r\nGenre: Comedy, Horror\r\nSubtitles: English\r\nPoster: \r  https://yuq.me/users/25/564/pS8KLVIJ0B.jpg \r\n\r\nGeneral\r\nComplete name                            : Sleepaway Camp 2 Unhappy Campers (fiveofseven zombiRG).mp4\r\nFormat                                   : MPEG-4\r\nFormat profile                           : Base Media\r\nCodec ID                                 : isom\r\nFile size                                : 600 MiB\r\nDuration                                 : 1h 20mn\r\nOverall bit rate mode                    : Variable\r\nOverall bit rate                         : 1 047 Kbps\r\nEncoded date                             : UTC 2016-03-27 17:51:06\r\nTagged date                              : UTC 2016-03-27 19:02:12\r\nWriting application                      : My MP4Box GUI 0.6.0.6 &lt;http://my-mp4box-gui.zymichost.com&gt;\r\n\r\nVideo\r\nID                                       : 1\r\nFormat                                   : AVC\r\nFormat/Info                              : Advanced Video Codec\r\nFormat profile                           :   \r\nFormat settings, CABAC                   : Yes\r\nFormat settings, ReFrames                : 7 frames\r\nCodec ID                                 : avc1\r\nCodec ID/Info                            : Advanced Video Coding\r\nDuration                                 : 1h 20mn\r\nBit rate                                 : 915 Kbps\r\nMaximum bit rate                         : 5 883 Kbps\r\nWidth                                    : 720 pixels\r\nHeight                                   : 392 pixels\r\nDisplay aspect ratio                     : 1.85:1\r\nFrame rate mode                          : Constant\r\nFrame rate                               : 23.976 fps\r\nColor space                              : YUV\r\nChroma subsampling                       : 4:2:0\r\nBit depth                                : 8 bits\r\nScan type                                : Progressive\r\nBits/(Pixel*Frame)                       : 0.135\r\nStream size                              : 524 MiB (87%)\r\nTitle                                    : 480p.mp4\r\nWriting library                          : x264 core 146 r2538 121396c\r\nLanguage                                 : English\r\nEncoded date                             : UTC 2016-03-27 06:08:14\r\nTagged date                              : UTC 2016-03-27 17:51:35\r\n\r\nAudio\r\nID                                       : 2\r\nFormat                                   : AAC\r\nFormat/Info                              : Advanced Audio Codec\r\nFormat profile                           : LC\r\nCodec ID                                 : 40\r\nDuration                                 : 1h 20mn\r\nBit rate mode                            : Variable\r\nBit rate                                 : 128 Kbps\r\nMaximum bit rate                         : 135 Kbps\r\nChannel count                            : 2 channels\r\nChannel positions                        : Front: L R\r\nSampling rate                            : 48.0 KHz\r\nCompression mode                         : Lossy\r\nStream size                              : 73.4 MiB (12%)\r\nTitle                                    : DTS to aac.mp4\r\nLanguage                                 : English\r\nEncoded date                             : UTC 2016-03-27 17:51:31\r\nTagged date                              : UTC 2016-03-27 17:51:35\r\n\r\n\r\nScreenshots - \r\n  \nhttps://yuq.me/users/25/564/LsFkB2ztdI.jpg \r\n  \nhttps://yuq.me/users/25/564/Jyc98qQk0z.jpg \r\n  \nhttps://yuq.me/users/25/564/AaymRQ3H1F.jpg \r\n  \nhttps://yuq.me/users/25/564/BUiEomAFc5.jpg \r\n \r\nsignature \r\n  \nhttps://yuq.me/users/25/564/aegRQCBILx.png","torrent":{"xt":"urn:btih:4b1fcccbc0f463cd89162974cad29bc2a4819c8c","amp;dn":"Sleepaway+Camp+2+Unhappy+Campers+%281988%29+fiveofseven+zombiRG","amp;tr":["udp%3A%2F%2Ftracker.leechers-paradise.org%3A6969","udp%3A%2F%2Fzer0day.ch%3A1337","udp%3A%2F%2Fopen.demonii.com%3A1337","udp%3A%2F%2Ftracker.coppersurfer.tk%3A6969","udp%3A%2F%2Fexodus.desync.com%3A6969"],"infoHash":"4b1fcccbc0f463cd89162974cad29bc2a4819c8c","infoHashBuffer":{"type":"Buffer","data":[75,31,204,203,192,244,99,205,137,22,41,116,202,210,155,194,164,129,156,140]},"announce":[],"urlList":[]}}